<svg width="168" height="168" viewBox="0 0 168 168" fill="none" xmlns="http://www.w3.org/2000/svg">
<path d="M18.6667 168C13.5333 168 9.13735 166.171 5.47868 162.512C1.82001 158.853 -0.00620637 154.46 1.58461e-05 149.333V18.6667C1.58461e-05 13.5333 1.82935 9.13735 5.48801 5.47868C9.14668 1.82001 13.5396 -0.00620637 18.6667 1.58461e-05H149.333C154.467 1.58461e-05 158.863 1.82935 162.521 5.48801C166.18 9.14668 168.006 13.5396 168 18.6667V149.333C168 154.467 166.171 158.863 162.512 162.521C158.853 166.18 154.46 168.006 149.333 168H18.6667ZM28 130.667H140L105 84L77 121.333L56 93.3333L28 130.667Z" fill="#E7E5E4"/>
</svg>
