<svg width="317" height="161" viewBox="0 0 317 161" fill="none" xmlns="http://www.w3.org/2000/svg">
<path d="M295 0C276.833 8.83333 243.2 41.1 254 99.5C267.667 90.1667 295 57.2 295 0Z" fill="#237000"/>
<path d="M243.5 100.5C232.167 88.8333 211.5 56.7 219.5 21.5C232.833 30.5 256.3 58.9 243.5 100.5Z" fill="#237000"/>
<path d="M259 107C264.5 97.8333 282 80.4 308 84C303.333 91.5 287 106.6 259 107Z" fill="#237000"/>
<path d="M33.936 97.3C34.6827 97.3 35.28 97.5613 35.728 98.084C36.2133 98.5693 36.456 99.1853 36.456 99.932V133.644C36.456 134.465 36.176 135.156 35.616 135.716C35.0933 136.239 34.4213 136.5 33.6 136.5C33.2267 136.5 32.816 136.425 32.368 136.276C31.9573 136.127 31.64 135.921 31.416 135.66L8.4 105.812L9.688 105.084V133.924C9.688 134.633 9.44533 135.249 8.96 135.772C8.47467 136.257 7.85867 136.5 7.112 136.5C6.328 136.5 5.69333 136.257 5.208 135.772C4.76 135.249 4.536 134.633 4.536 133.924V100.156C4.536 99.2973 4.816 98.6067 5.376 98.084C5.936 97.5613 6.608 97.3 7.392 97.3C7.80267 97.3 8.232 97.3933 8.68 97.58C9.16533 97.7293 9.52 97.972 9.744 98.308L32.2 127.54L31.36 128.324V99.932C31.36 99.1853 31.6027 98.5693 32.088 98.084C32.5733 97.5613 33.1893 97.3 33.936 97.3ZM58.4303 137.06C55.369 137.06 52.681 136.425 50.3663 135.156C48.089 133.849 46.3156 132.076 45.0463 129.836C43.8143 127.559 43.1983 124.964 43.1983 122.052C43.1983 118.767 43.8516 115.967 45.1583 113.652C46.5023 111.3 48.2383 109.508 50.3663 108.276C52.5316 107.007 54.809 106.372 57.1983 106.372C58.9903 106.372 60.7076 106.745 62.3503 107.492C64.0303 108.201 65.505 109.209 66.7743 110.516C68.0436 111.785 69.0516 113.297 69.7983 115.052C70.545 116.769 70.937 118.655 70.9743 120.708C70.937 121.455 70.6383 122.071 70.0783 122.556C69.5183 123.041 68.865 123.284 68.1183 123.284H46.3903L45.0463 118.524H66.1023L65.0383 119.532V118.132C64.9263 116.825 64.4783 115.687 63.6943 114.716C62.9103 113.708 61.9396 112.943 60.7823 112.42C59.6623 111.86 58.4676 111.58 57.1983 111.58C56.0783 111.58 54.9956 111.767 53.9503 112.14C52.905 112.476 51.9903 113.036 51.2063 113.82C50.4223 114.604 49.7876 115.649 49.3023 116.956C48.817 118.225 48.5743 119.812 48.5743 121.716C48.5743 123.769 49.0036 125.561 49.8623 127.092C50.721 128.623 51.8783 129.817 53.3343 130.676C54.7903 131.497 56.4143 131.908 58.2063 131.908C59.5503 131.908 60.6703 131.777 61.5663 131.516C62.4623 131.217 63.209 130.863 63.8063 130.452C64.4036 130.041 64.9263 129.649 65.3743 129.276C65.9716 128.94 66.5316 128.772 67.0543 128.772C67.7263 128.772 68.2863 129.015 68.7343 129.5C69.1823 129.948 69.4063 130.489 69.4063 131.124C69.4063 131.945 68.9956 132.692 68.1743 133.364C67.1663 134.335 65.7663 135.193 63.9743 135.94C62.2196 136.687 60.3716 137.06 58.4303 137.06ZM91.8772 106.54C94.4905 106.54 96.8052 107.193 98.8212 108.5C100.875 109.807 102.499 111.599 103.693 113.876C104.888 116.116 105.485 118.729 105.485 121.716C105.485 124.703 104.888 127.353 103.693 129.668C102.499 131.945 100.893 133.737 98.8772 135.044C96.8612 136.351 94.5839 137.004 92.0452 137.004C90.6265 137.004 89.2825 136.78 88.0132 136.332C86.7439 135.884 85.6239 135.305 84.6532 134.596C83.6825 133.849 82.8799 133.065 82.2452 132.244C81.6479 131.423 81.2745 130.657 81.1252 129.948L82.6372 129.22V144.844C82.6372 145.665 82.3572 146.337 81.7972 146.86C81.2745 147.42 80.6212 147.7 79.8372 147.7C79.0159 147.7 78.3439 147.42 77.8212 146.86C77.2985 146.337 77.0372 145.665 77.0372 144.844V109.788C77.0372 109.004 77.2985 108.332 77.8212 107.772C78.3439 107.212 79.0159 106.932 79.8372 106.932C80.6212 106.932 81.2745 107.212 81.7972 107.772C82.3572 108.332 82.6372 109.004 82.6372 109.788V113.652L81.7412 113.148C81.8532 112.439 82.2079 111.711 82.8052 110.964C83.4025 110.18 84.1492 109.452 85.0452 108.78C85.9785 108.108 87.0239 107.567 88.1812 107.156C89.3759 106.745 90.6079 106.54 91.8772 106.54ZM91.2612 111.692C89.4692 111.692 87.9012 112.14 86.5572 113.036C85.2505 113.895 84.2239 115.071 83.4772 116.564C82.7305 118.057 82.3572 119.775 82.3572 121.716C82.3572 123.62 82.7305 125.356 83.4772 126.924C84.2239 128.455 85.2505 129.668 86.5572 130.564C87.9012 131.423 89.4692 131.852 91.2612 131.852C93.0159 131.852 94.5465 131.423 95.8532 130.564C97.1599 129.668 98.1865 128.455 98.9332 126.924C99.7172 125.356 100.109 123.62 100.109 121.716C100.109 119.812 99.7172 118.113 98.9332 116.62C98.1865 115.089 97.1599 113.895 95.8532 113.036C94.5465 112.14 93.0159 111.692 91.2612 111.692ZM115.129 136.5C114.233 136.5 113.505 136.239 112.945 135.716C112.422 135.156 112.161 134.465 112.161 133.644V100.156C112.161 99.3347 112.441 98.6627 113.001 98.14C113.561 97.58 114.233 97.3 115.017 97.3H133.945C134.766 97.3 135.438 97.5613 135.961 98.084C136.521 98.6067 136.801 99.26 136.801 100.044C136.801 100.753 136.521 101.369 135.961 101.892C135.438 102.415 134.766 102.676 133.945 102.676H117.593L117.985 102.116V114.604L117.649 113.932H131.425C132.246 113.932 132.918 114.193 133.441 114.716C134.001 115.239 134.281 115.892 134.281 116.676C134.281 117.385 134.001 118.001 133.441 118.524C132.918 119.047 132.246 119.308 131.425 119.308H117.537L117.985 118.86V133.644C117.985 134.465 117.705 135.156 117.145 135.716C116.585 136.239 115.913 136.5 115.129 136.5ZM165.918 106.596C166.702 106.596 167.355 106.876 167.878 107.436C168.438 107.959 168.718 108.631 168.718 109.452V133.644C168.718 134.465 168.438 135.156 167.878 135.716C167.355 136.239 166.702 136.5 165.918 136.5C165.097 136.5 164.425 136.239 163.902 135.716C163.379 135.156 163.118 134.465 163.118 133.644V129.612L164.238 129.78C164.238 130.452 163.958 131.199 163.398 132.02C162.875 132.841 162.147 133.644 161.214 134.428C160.281 135.175 159.179 135.809 157.91 136.332C156.641 136.817 155.278 137.06 153.822 137.06C151.246 137.06 148.931 136.407 146.878 135.1C144.825 133.756 143.201 131.927 142.006 129.612C140.811 127.297 140.214 124.665 140.214 121.716C140.214 118.692 140.811 116.041 142.006 113.764C143.201 111.449 144.806 109.639 146.822 108.332C148.875 107.025 151.153 106.372 153.654 106.372C155.259 106.372 156.734 106.633 158.078 107.156C159.459 107.679 160.654 108.351 161.662 109.172C162.67 109.993 163.454 110.871 164.014 111.804C164.574 112.7 164.854 113.559 164.854 114.38L163.118 114.548V109.452C163.118 108.668 163.379 107.996 163.902 107.436C164.425 106.876 165.097 106.596 165.918 106.596ZM154.494 131.908C156.249 131.908 157.779 131.46 159.086 130.564C160.43 129.668 161.475 128.455 162.222 126.924C162.969 125.356 163.342 123.62 163.342 121.716C163.342 119.775 162.969 118.039 162.222 116.508C161.475 114.977 160.43 113.764 159.086 112.868C157.779 111.972 156.249 111.524 154.494 111.524C152.777 111.524 151.246 111.972 149.902 112.868C148.558 113.764 147.513 114.977 146.766 116.508C146.019 118.039 145.646 119.775 145.646 121.716C145.646 123.62 146.019 125.356 146.766 126.924C147.513 128.455 148.539 129.668 149.846 130.564C151.19 131.46 152.739 131.908 154.494 131.908ZM179.314 136.5C178.492 136.5 177.82 136.239 177.298 135.716C176.775 135.156 176.514 134.465 176.514 133.644V109.9C176.514 109.079 176.775 108.407 177.298 107.884C177.82 107.324 178.492 107.044 179.314 107.044C180.098 107.044 180.751 107.324 181.274 107.884C181.834 108.407 182.114 109.079 182.114 109.9V116.172L181.554 113.764C181.852 112.719 182.3 111.748 182.898 110.852C183.532 109.956 184.279 109.172 185.138 108.5C185.996 107.828 186.948 107.305 187.994 106.932C189.076 106.559 190.196 106.372 191.354 106.372C192.324 106.372 193.164 106.633 193.874 107.156C194.583 107.679 194.938 108.332 194.938 109.116C194.938 110.124 194.676 110.871 194.154 111.356C193.631 111.804 193.052 112.028 192.418 112.028C191.858 112.028 191.316 111.916 190.794 111.692C190.271 111.431 189.655 111.3 188.946 111.3C188.162 111.3 187.359 111.505 186.538 111.916C185.716 112.327 184.97 112.943 184.298 113.764C183.626 114.548 183.084 115.481 182.674 116.564C182.3 117.647 182.114 118.86 182.114 120.204V133.644C182.114 134.465 181.834 135.156 181.274 135.716C180.751 136.239 180.098 136.5 179.314 136.5ZM214.704 106.54C217.467 106.54 219.595 107.231 221.088 108.612C222.581 109.956 223.571 111.785 224.056 114.1L223.16 113.82L223.552 112.924C224.037 111.953 224.765 110.983 225.736 110.012C226.744 109.004 227.939 108.183 229.32 107.548C230.701 106.876 232.176 106.54 233.744 106.54C236.32 106.54 238.317 107.1 239.736 108.22C241.155 109.303 242.144 110.777 242.704 112.644C243.264 114.473 243.544 116.527 243.544 118.804V133.644C243.544 134.465 243.283 135.156 242.76 135.716C242.237 136.239 241.565 136.5 240.744 136.5C239.96 136.5 239.288 136.239 238.728 135.716C238.205 135.156 237.944 134.465 237.944 133.644V118.86C237.944 117.553 237.757 116.359 237.384 115.276C237.048 114.193 236.432 113.335 235.536 112.7C234.677 112.028 233.483 111.692 231.952 111.692C230.496 111.692 229.189 112.028 228.032 112.7C226.912 113.335 226.035 114.193 225.4 115.276C224.765 116.359 224.448 117.553 224.448 118.86V133.644C224.448 134.465 224.187 135.156 223.664 135.716C223.141 136.239 222.469 136.5 221.648 136.5C220.827 136.5 220.155 136.239 219.632 135.716C219.109 135.156 218.848 134.465 218.848 133.644V118.804C218.848 117.497 218.661 116.303 218.288 115.22C217.952 114.137 217.355 113.279 216.496 112.644C215.637 112.009 214.443 111.692 212.912 111.692C211.456 111.692 210.168 112.009 209.048 112.644C207.928 113.279 207.051 114.137 206.416 115.22C205.819 116.303 205.52 117.497 205.52 118.804V133.644C205.52 134.465 205.24 135.156 204.68 135.716C204.157 136.239 203.504 136.5 202.72 136.5C201.899 136.5 201.227 136.239 200.704 135.716C200.181 135.156 199.92 134.465 199.92 133.644V109.9C199.92 109.079 200.181 108.407 200.704 107.884C201.227 107.324 201.899 107.044 202.72 107.044C203.504 107.044 204.157 107.324 204.68 107.884C205.24 108.407 205.52 109.079 205.52 109.9V113.204L204.456 113.82C204.717 112.999 205.147 112.159 205.744 111.3C206.341 110.441 207.088 109.657 207.984 108.948C208.917 108.239 209.944 107.66 211.064 107.212C212.184 106.764 213.397 106.54 214.704 106.54Z" fill="#003D00"/>
</svg>
